<svg width="939" height="900" viewBox="0 0 939 900" fill="none" xmlns="http://www.w3.org/2000/svg">
<path d="M253.883 474.5C339.483 422.5 608.216 79.8333 731.883 -85C866.216 -49.1667 1132.98 29.9 1125.38 59.5C1115.88 96.5 959.883 311.5 955.383 372C950.883 432.5 629.383 796 372.883 828.5C116.383 861 146.883 539.5 253.883 474.5Z" fill="#FF7200" fill-opacity="0.27"/>
<path d="M95.8501 568.096C199.862 507.397 526.399 107.407 676.666 -85C839.894 -43.1723 1164.04 49.121 1154.81 83.6726C1143.26 126.862 953.708 377.828 948.24 448.449C942.772 519.07 552.119 943.378 240.447 981.314C-71.2257 1019.25 -34.1653 643.969 95.8501 568.096Z" fill="#FF7200" fill-opacity="0.27"/>
</svg>
